# xmcd
#
# Track frame offsets:
#	150
#	17575
#	31836
#	46863
#	67533
#	83013
#	94474
#	112050
#	121812
#	136790
#	153305
#	169970
#
# Disc length: 2467 seconds
#
# Revision: 1
# Processed by: cddbd v1.5.1PL2 Copyright (c) Steve Scherf et al.
# Submitted via: audiograbber 1.83.01
#
DISCID=8a09a10c
DTITLE=The Gamblers - Full House
DYEAR=1900
DGENRE=Country
TTITLE0=Chatttahoochie
TTITLE1=The Night I Called The Old Man Out
TTITLE2=Independence Day
TTITLE3=Copperhead Road
TTITLE4=Swingin' Doors
TTITLE5=My Babe Loves Me
TTITLE6=There Goes
TTITLE7=The Last Train
TTITLE8=Love Like This
TTITLE9=Daddy Never Was The Cadillac Kind
TTITLE10=Billy The Kid
TTITLE11=He Will Be Mine
EXTD=
EXTT0=
EXTT1=
EXTT2=
EXTT3=
EXTT4=
EXTT5=
EXTT6=
EXTT7=
EXTT8=
EXTT9=
EXTT10=
EXTT11=
PLAYORDER=
